<svg width="60" height="61" viewBox="0 0 60 61" fill="none" xmlns="http://www.w3.org/2000/svg">
<rect y="0.662109" width="60" height="60" rx="30" fill="#EDFFEB"/>
<path fill-rule="evenodd" clip-rule="evenodd" d="M30 26.1621C30 27.819 28.6569 29.1621 27 29.1621C25.3431 29.1621 24 27.819 24 26.1621C24 24.5053 25.3431 23.1621 27 23.1621C28.6569 23.1621 30 24.5053 30 26.1621ZM27 30.6621C29.4853 30.6621 31.5 28.6474 31.5 26.1621C31.5 23.6768 29.4853 21.6621 27 21.6621C24.5147 21.6621 22.5 23.6768 22.5 26.1621C22.5 28.6474 24.5147 30.6621 27 30.6621ZM36 38.1621C36 39.6621 34.5 39.6621 34.5 39.6621H19.5C19.5 39.6621 18 39.6621 18 38.1621C18 36.6621 19.5 32.1621 27 32.1621C34.5 32.1621 36 36.6621 36 38.1621ZM34.5 38.1569C34.4978 37.7867 34.2693 36.6778 33.2518 35.6603C32.2734 34.6819 30.4336 33.6621 27 33.6621C23.5663 33.6621 21.7265 34.6819 20.7481 35.6603C19.7306 36.6778 19.5021 37.7867 19.5 38.1569H34.5Z" fill="#009026"/>
<path fill-rule="evenodd" clip-rule="evenodd" d="M38.25 26.1621C38.6642 26.1621 39 26.4979 39 26.9121V29.1621H41.25C41.6642 29.1621 42 29.4979 42 29.9121C42 30.3263 41.6642 30.6621 41.25 30.6621H39V32.9121C39 33.3263 38.6642 33.6621 38.25 33.6621C37.8358 33.6621 37.5 33.3263 37.5 32.9121V30.6621H35.25C34.8358 30.6621 34.5 30.3263 34.5 29.9121C34.5 29.4979 34.8358 29.1621 35.25 29.1621H37.5V26.9121C37.5 26.4979 37.8358 26.1621 38.25 26.1621Z" fill="#009026"/>
</svg>
