<svg width="46" height="46" viewBox="0 0 46 46" fill="none" xmlns="http://www.w3.org/2000/svg">
<rect width="46" height="46" rx="23" fill="#EDFFEB"/>
<mask id="mask0_2_12674" style="mask-type:alpha" maskUnits="userSpaceOnUse" x="14" y="14" width="18" height="18">
<path fill-rule="evenodd" clip-rule="evenodd" d="M23 18.5C23.3107 18.5 23.5625 18.7518 23.5625 19.0625V22.4375H26.9375C27.2482 22.4375 27.5 22.6893 27.5 23C27.5 23.3107 27.2482 23.5625 26.9375 23.5625H23.5625V26.9375C23.5625 27.2482 23.3107 27.5 23 27.5C22.6893 27.5 22.4375 27.2482 22.4375 26.9375V23.5625H19.0625C18.7518 23.5625 18.5 23.3107 18.5 23C18.5 22.6893 18.7518 22.4375 19.0625 22.4375H22.4375V19.0625C22.4375 18.7518 22.6893 18.5 23 18.5Z" fill="black"/>
</mask>
<g mask="url(#mask0_2_12674)">
<rect x="14" y="14" width="18" height="18" fill="#009026"/>
</g>
</svg>
