<svg width="20" height="20" viewBox="0 0 20 20" fill="none" xmlns="http://www.w3.org/2000/svg">
    <path fill-rule="evenodd" clip-rule="evenodd" d="M11.2357 3.52754C11.5083 2.18461 12.6956 1.17383 14.119 1.17383C15.5424 1.17383 16.7297 2.18461 17.0023 3.52754H19.4149V3.53411C19.738 3.53411 20 3.79609 20 4.11925C20 4.44242 19.738 4.7044 19.4149 4.7044H17.0023C16.7297 6.04734 15.5424 7.05811 14.119 7.05811C12.6956 7.05811 11.5083 6.04734 11.2357 4.7044H0.585145C0.261978 4.7044 0 4.44242 0 4.11925C0 3.79609 0.261978 3.53411 0.585145 3.53411V3.52754H11.2357ZM14.119 2.35069C13.1441 2.35069 12.3537 3.14103 12.3537 4.11597C12.3537 5.09091 13.1441 5.88126 14.119 5.88126C15.0939 5.88126 15.8843 5.09091 15.8843 4.11597C15.8843 3.14103 15.0939 2.35069 14.119 2.35069Z" fill="black"/>
    <path fill-rule="evenodd" clip-rule="evenodd" d="M2.99771 9.41183C3.27031 8.06889 4.45762 7.05811 5.881 7.05811C7.30438 7.05811 8.49169 8.06889 8.76429 9.41183H13.0892V9.41321C13.0923 9.41317 13.0954 9.41314 13.0985 9.41314C13.422 9.41314 13.6842 9.67534 13.6842 9.99878C13.6842 10.3222 13.422 10.5844 13.0985 10.5844C13.0954 10.5844 13.0923 10.5844 13.0892 10.5843V10.5887H8.76429C8.49169 11.9316 7.30438 12.9424 5.881 12.9424C4.45762 12.9424 3.27031 11.9316 2.99771 10.5887H0.585145V10.5834C0.261978 10.5834 0 10.3215 0 9.99829C0 9.67512 0.261978 9.41314 0.585145 9.41314V9.41183H2.99771ZM5.881 8.23497C4.90606 8.23497 4.11572 9.02532 4.11572 10.0003C4.11572 10.9752 4.90606 11.7655 5.881 11.7655C6.85594 11.7655 7.64629 10.9752 7.64629 10.0003C7.64629 9.02532 6.85594 8.23497 5.881 8.23497Z" fill="black"/>
    <path d="M16.6197 10.5887H19.4149V10.5834C19.738 10.5834 20 10.3215 20 9.99829C20 9.67512 19.738 9.41314 19.4149 9.41314V9.41183H16.6197V9.41405C16.3119 9.43113 16.0675 9.68617 16.0675 9.99829C16.0675 10.3104 16.3119 10.5654 16.6197 10.5825V10.5887Z" fill="black"/>
    <path fill-rule="evenodd" clip-rule="evenodd" d="M11.2357 15.2961C11.5083 13.9532 12.6956 12.9424 14.119 12.9424C15.5424 12.9424 16.7297 13.9532 17.0023 15.2961H19.3468C19.3692 15.2935 19.3919 15.2922 19.4149 15.2922C19.738 15.2922 20 15.5542 20 15.8773C20 16.2005 19.738 16.4625 19.4149 16.4625V16.473H17.0023C16.7297 17.8159 15.5424 18.8267 14.119 18.8267C12.6956 18.8267 11.5083 17.8159 11.2357 16.473H0.585145V16.4625C0.261978 16.4625 0 16.2005 0 15.8773C0 15.5542 0.261978 15.2922 0.585145 15.2922C0.608148 15.2922 0.630841 15.2935 0.653151 15.2961H11.2357ZM14.119 14.1193C13.1441 14.1193 12.3537 14.9096 12.3537 15.8845C12.3537 16.8595 13.1441 17.6498 14.119 17.6498C15.0939 17.6498 15.8843 16.8595 15.8843 15.8845C15.8843 14.9096 15.0939 14.1193 14.119 14.1193Z" fill="black"/>
</svg>
