<svg width="60" height="61" viewBox="0 0 60 61" fill="none" xmlns="http://www.w3.org/2000/svg">
<rect y="0.162109" width="60" height="60" rx="30" fill="#EDFFEB"/>
<path fill-rule="evenodd" clip-rule="evenodd" d="M21 21.9121C20.5858 21.9121 20.25 22.2479 20.25 22.6621V24.1621C20.25 24.5763 20.5858 24.9121 21 24.9121H22.5C22.9142 24.9121 23.25 24.5763 23.25 24.1621V22.6621C23.25 22.2479 22.9142 21.9121 22.5 21.9121H21ZM22.5 22.6621H21V24.1621H22.5V22.6621Z" fill="#009026"/>
<path d="M25.5 23.4121C25.5 22.9979 25.8358 22.6621 26.25 22.6621H39.75C40.1642 22.6621 40.5 22.9979 40.5 23.4121C40.5 23.8263 40.1642 24.1621 39.75 24.1621H26.25C25.8358 24.1621 25.5 23.8263 25.5 23.4121Z" fill="#009026"/>
<path d="M26.25 28.6621C25.8358 28.6621 25.5 28.9979 25.5 29.4121C25.5 29.8263 25.8358 30.1621 26.25 30.1621H39.75C40.1642 30.1621 40.5 29.8263 40.5 29.4121C40.5 28.9979 40.1642 28.6621 39.75 28.6621H26.25Z" fill="#009026"/>
<path d="M26.25 34.6621C25.8358 34.6621 25.5 34.9979 25.5 35.4121C25.5 35.8263 25.8358 36.1621 26.25 36.1621H39.75C40.1642 36.1621 40.5 35.8263 40.5 35.4121C40.5 34.9979 40.1642 34.6621 39.75 34.6621H26.25Z" fill="#009026"/>
<path fill-rule="evenodd" clip-rule="evenodd" d="M20.25 28.6621C20.25 28.2479 20.5858 27.9121 21 27.9121H22.5C22.9142 27.9121 23.25 28.2479 23.25 28.6621V30.1621C23.25 30.5763 22.9142 30.9121 22.5 30.9121H21C20.5858 30.9121 20.25 30.5763 20.25 30.1621V28.6621ZM21 28.6621H22.5V30.1621H21V28.6621Z" fill="#009026"/>
<path fill-rule="evenodd" clip-rule="evenodd" d="M21 33.9121C20.5858 33.9121 20.25 34.2479 20.25 34.6621V36.1621C20.25 36.5763 20.5858 36.9121 21 36.9121H22.5C22.9142 36.9121 23.25 36.5763 23.25 36.1621V34.6621C23.25 34.2479 22.9142 33.9121 22.5 33.9121H21ZM22.5 34.6621H21V36.1621H22.5V34.6621Z" fill="#009026"/>
</svg>
