<svg width="46" height="47" viewBox="0 0 46 47" fill="none" xmlns="http://www.w3.org/2000/svg">
<rect y="0.662109" width="46" height="46" rx="23" fill="url(#paint0_linear_4507_27655)"/>
<path fill-rule="evenodd" clip-rule="evenodd" d="M32 23.6621C32 28.6327 27.9706 32.6621 23 32.6621C18.0294 32.6621 14 28.6327 14 23.6621C14 18.6915 18.0294 14.6621 23 14.6621C27.9706 14.6621 32 18.6915 32 23.6621ZM20.1526 21.4489C20.0162 21.4489 19.904 21.3387 19.9104 21.2024C20.0015 19.2712 21.5729 18.5996 23.0061 18.5996C24.5771 18.5996 26.0125 19.4208 26.0125 21.1204C26.0125 22.3344 25.2984 22.9128 24.6128 23.4341C23.7844 24.0626 23.4774 24.2982 23.4774 25.1052V25.2551C23.4774 25.3931 23.3654 25.5051 23.2274 25.5051H22.2529C22.1162 25.5051 22.0048 25.3952 22.0029 25.2585L21.9992 24.9838C21.9563 23.9412 22.5562 23.2985 23.3131 22.7486C23.9773 22.2487 24.3986 21.9202 24.3986 21.2061C24.3986 20.2778 23.6916 19.8922 22.9204 19.8922C22.0047 19.8922 21.4966 20.4453 21.4067 21.1994C21.3903 21.3365 21.2802 21.4489 21.1422 21.4489H20.1526ZM22.799 28.6971C22.142 28.6971 21.6635 28.2544 21.6635 27.6545C21.6635 27.0333 22.142 26.5977 22.799 26.5977C23.4845 26.5977 23.9558 27.0333 23.9558 27.6545C23.9558 28.2544 23.4845 28.6971 22.799 28.6971Z" fill="#F0F6FF"/>
<defs>
<linearGradient id="paint0_linear_4507_27655" x1="46" y1="0.662109" x2="0" y2="46.6621" gradientUnits="userSpaceOnUse">
<stop stop-color="#009026"/>
<stop offset="1" stop-color="#0E4F1F"/>
</linearGradient>
</defs>
</svg>
