<svg width="60" height="61" viewBox="0 0 60 61" fill="none" xmlns="http://www.w3.org/2000/svg">
<rect y="0.162109" width="60" height="60" rx="30" fill="#EDFFEB"/>
<path fill-rule="evenodd" clip-rule="evenodd" d="M18 30.1621C18 23.5347 23.3726 18.1621 30 18.1621C36.6274 18.1621 42 23.5347 42 30.1621C42 36.7895 36.6274 42.1621 30 42.1621C23.3726 42.1621 18 36.7895 18 30.1621ZM29.25 19.7769C28.2459 20.084 27.2469 21.0079 26.4191 22.5601C26.2044 22.9626 26.006 23.3999 25.8266 23.8675C26.8843 24.1035 28.0357 24.2538 29.25 24.2979V19.7769ZM24.3728 23.4713C23.7211 23.2588 23.1194 23.0114 22.5772 22.7357C23.5465 21.7668 24.7043 20.9866 25.9909 20.4546C25.6629 20.8807 25.3637 21.3516 25.0956 21.8542C24.829 22.354 24.5871 22.8951 24.3728 23.4713ZM23.2627 29.4121H19.5264C19.6716 27.3546 20.4096 25.4607 21.5707 23.9003C22.2747 24.2866 23.063 24.6226 23.9172 24.9005C23.5453 26.281 23.3171 27.8071 23.2627 29.4121ZM25.363 25.3004C26.5756 25.5805 27.8853 25.7525 29.25 25.7988V29.4121H24.7636C24.8174 27.9316 25.0293 26.5418 25.363 25.3004ZM30.75 25.7988V29.4121H35.2364C35.1825 27.9316 34.9707 26.5418 34.637 25.3004C33.4244 25.5805 32.1147 25.7525 30.75 25.7988ZM24.7636 30.9121H29.25V34.5254C27.8853 34.5717 26.5756 34.7437 25.363 35.0238C25.0293 33.7824 24.8174 32.3926 24.7636 30.9121ZM30.75 30.9121V34.5254C32.1147 34.5717 33.4244 34.7437 34.637 35.0238C34.9707 33.7824 35.1825 32.3926 35.2364 30.9121H30.75ZM25.8266 36.4567C26.8843 36.2207 28.0357 36.0704 29.25 36.0263V40.5473C28.2459 40.2402 27.2469 39.3163 26.4191 37.7641C26.2044 37.3616 26.006 36.9243 25.8266 36.4567ZM25.9909 39.8696C25.6629 39.4435 25.3637 38.9726 25.0956 38.47C24.829 37.9702 24.5871 37.4291 24.3728 36.8529C23.7211 37.0654 23.1194 37.3128 22.5772 37.5885C23.5465 38.5574 24.7043 39.3376 25.9909 39.8696ZM23.9172 35.4237C23.063 35.7016 22.2747 36.0376 21.5707 36.4239C20.4096 34.8635 19.6716 32.9696 19.5264 30.9121H23.2627C23.3171 32.5171 23.5453 34.0432 23.9172 35.4237ZM34.0091 39.8696C35.2957 39.3376 36.4535 38.5574 37.4228 37.5885C36.8806 37.3128 36.2788 37.0654 35.6272 36.8529C35.4128 37.4291 35.171 37.9702 34.9044 38.47C34.6363 38.9726 34.337 39.4435 34.0091 39.8696ZM30.75 36.0263C31.9642 36.0704 33.1157 36.2207 34.1734 36.4567C33.994 36.9243 33.7956 37.3616 33.5809 37.7641C32.7531 39.3163 31.7541 40.2402 30.75 40.5473V36.0263ZM36.0827 35.4237C36.937 35.7016 37.7253 36.0376 38.4293 36.4239C39.5904 34.8635 40.3284 32.9696 40.4736 30.9121H36.7373C36.6829 32.5171 36.4547 34.0432 36.0827 35.4237ZM40.4736 29.4121H36.7373C36.6829 27.8071 36.4547 26.281 36.0827 24.9005C36.937 24.6226 37.7253 24.2866 38.4293 23.9003C39.5904 25.4607 40.3284 27.3546 40.4736 29.4121ZM34.9044 21.8542C35.171 22.354 35.4128 22.8951 35.6272 23.4713C36.2788 23.2588 36.8806 23.0114 37.4228 22.7357C36.4535 21.7668 35.2957 20.9866 34.0091 20.4546C34.337 20.8807 34.6363 21.3516 34.9044 21.8542ZM34.1734 23.8675C33.1157 24.1035 31.9642 24.2538 30.75 24.2979V19.7769C31.7541 20.084 32.7531 21.0079 33.5809 22.5601C33.7956 22.9626 33.994 23.3999 34.1734 23.8675Z" fill="#009026"/>
</svg>
